<svg xmlns="http://www.w3.org/2000/svg" width="104" height="182" viewBox="0 0 104 182" fill="none">
  <foreignObject x="-30" y="4" width="169" height="61"><div xmlns="http://www.w3.org/1999/xhtml" style="backdrop-filter:blur(15px);height:100%;width:100%"></div></foreignObject><path data-figma-bg-blur-radius="30" d="M0 34.5H109" stroke="#BAD7F5" stroke-opacity="0.14"/>
  <foreignObject x="-30" y="64" width="169" height="61"><div xmlns="http://www.w3.org/1999/xhtml" style="backdrop-filter:blur(15px);height:100%;width:100%"></div></foreignObject><path data-figma-bg-blur-radius="30" d="M0 94.5H109" stroke="#BAD7F5" stroke-opacity="0.14"/>
  <foreignObject x="-30" y="124" width="169" height="61"><div xmlns="http://www.w3.org/1999/xhtml" style="backdrop-filter:blur(15px);height:100%;width:100%"></div></foreignObject><path data-figma-bg-blur-radius="30" d="M0 154.5H109" stroke="#BAD7F5" stroke-opacity="0.14"/>
  <foreignObject x="22.7028" y="107" width="172.297" height="77.9019"><div xmlns="http://www.w3.org/1999/xhtml" style="backdrop-filter:blur(15px);height:100%;width:100%"></div></foreignObject><path data-figma-bg-blur-radius="30" d="M53 154.5L76 137.5H165" stroke="#BAD7F5" stroke-opacity="0.14"/>
  <foreignObject x="21.7028" y="134.098" width="172.297" height="77.9019"><div xmlns="http://www.w3.org/1999/xhtml" style="backdrop-filter:blur(15px);height:100%;width:100%"></div></foreignObject><path data-figma-bg-blur-radius="30" d="M52 164.5L75 181.5H164" stroke="#BAD7F5" stroke-opacity="0.14"/>
  <foreignObject x="40.7028" y="47" width="172.297" height="77.9019"><div xmlns="http://www.w3.org/1999/xhtml" style="backdrop-filter:blur(15px);height:100%;width:100%"></div></foreignObject><path data-figma-bg-blur-radius="30" d="M71 94.5L94 77.5H183" stroke="#BAD7F5" stroke-opacity="0.14"/>
  <foreignObject x="-11.2972" y="-13" width="172.297" height="77.9019"><div xmlns="http://www.w3.org/1999/xhtml" style="backdrop-filter:blur(15px);height:100%;width:100%"></div></foreignObject><path data-figma-bg-blur-radius="30" d="M19 34.5L42 17.5H131" stroke="#BAD7F5" stroke-opacity="0.14"/>
  <foreignObject x="16.7028" y="4.09814" width="172.297" height="77.9019"><div xmlns="http://www.w3.org/1999/xhtml" style="backdrop-filter:blur(15px);height:100%;width:100%"></div></foreignObject><path data-figma-bg-blur-radius="30" d="M47 34.5L70 51.5H159" stroke="#BAD7F5" stroke-opacity="0.14"/>
  <foreignObject x="36.7028" y="-30" width="172.297" height="77.9019"><div xmlns="http://www.w3.org/1999/xhtml" style="backdrop-filter:blur(15px);height:100%;width:100%"></div></foreignObject><path data-figma-bg-blur-radius="30" d="M67 17.5L90 0.5H179" stroke="#BAD7F5" stroke-opacity="0.14"/>
  <foreignObject x="-8.25916" y="124.072" width="165.759" height="70.9277"><div xmlns="http://www.w3.org/1999/xhtml" style="backdrop-filter:blur(15px);height:100%;width:100%"></div></foreignObject><path data-figma-bg-blur-radius="30" d="M22 154.5L38.5 164.5H127.5" stroke="#BAD7F5" stroke-opacity="0.14"/>
  <foreignObject x="24.7408" y="64.0723" width="165.759" height="70.9277"><div xmlns="http://www.w3.org/1999/xhtml" style="backdrop-filter:blur(15px);height:100%;width:100%"></div></foreignObject><path data-figma-bg-blur-radius="30" d="M55 94.5L71.5 104.5H160.5" stroke="#BAD7F5" stroke-opacity="0.14"/>
  <foreignObject x="55.7408" y="74.0723" width="165.759" height="70.9277"><div xmlns="http://www.w3.org/1999/xhtml" style="backdrop-filter:blur(15px);height:100%;width:100%"></div></foreignObject><path data-figma-bg-blur-radius="30" d="M86 104.5L102.5 114.5H191.5" stroke="#BAD7F5" stroke-opacity="0.14"/>
</svg>
