<svg xmlns="http://www.w3.org/2000/svg" width="150" height="150" viewBox="0 0 150 150" fill="none">
<g filter="url(#filter0_i_29_2184)">
    <mask id="path-1-inside-1_29_2184" fill="white">
      <path d="M130 0C141.046 0 150 8.95431 150 20V130C150 141.046 141.046 150 130 150H20C8.95431 150 5.63762e-07 141.046 0 130V20C0 8.95431 8.95431 5.63725e-07 20 0H130ZM33.3955 19C26.6499 19 24.1621 21.4878 24.1621 28.2334V109.678C24.1621 110.44 24.1959 111.148 24.2549 111.797C24.422 113.282 24.437 114.713 25.8135 116.33C25.9413 116.517 27.3379 117.54 27.3379 117.54C28.0802 117.914 28.6016 118.169 29.4521 118.523L70.4277 135.692C72.5466 136.661 73.4416 137.049 74.9805 136.995H75C76.5585 137.049 77.4534 136.661 79.5723 135.692L120.543 118.523C121.398 118.169 121.9 117.914 122.662 117.54C122.662 117.54 124.059 116.497 124.187 116.33C125.563 114.713 125.578 113.282 125.745 111.797C125.804 111.148 125.843 110.44 125.843 109.683V28.2285C125.838 21.4878 123.345 19 116.6 19H33.3955ZM74.6807 127.462L55.3926 120.824H94.79L74.6807 127.462ZM102.405 34.291C107.981 34.291 110.695 37.0052 110.695 42.6348V51.873H103.949V43.0078C103.949 41.2036 103.113 40.3682 101.368 40.3682H100.218C98.4134 40.3682 97.5772 41.2036 97.5771 43.0078V71.5889C97.5772 73.3882 98.4134 74.2236 100.218 74.2236H101.496C103.227 74.2236 104.062 73.3882 104.062 71.5889V61.3623H110.828V71.9033C110.828 77.5328 108.055 80.3007 102.465 80.3008H99.0625C93.4526 80.3008 90.7041 77.5132 90.7041 71.9033V42.6934C90.7041 37.0786 93.4526 34.291 99.0625 34.291H102.405ZM54.4482 40.9434H46.0117V53.7461H54.1338V60.0098H46.0117V73.6484H54.5615V79.9121H39.1377V34.6641H54.4482V40.9434ZM68.7021 34.6641C74.2921 34.6642 77.0605 37.4526 77.0605 43.082V55.1035C77.0604 60.7327 74.292 63.5057 68.7021 63.5059H64.7979V79.9121H57.9043V34.6641H68.7021ZM87.041 79.9121H80.167V34.6641H87.041V79.9121ZM64.7783 57.4287H67.625C69.3508 57.4287 70.1865 56.5926 70.1865 54.7734V43.416C70.1865 41.597 69.3507 40.7607 67.625 40.7607H64.7783V57.4287Z"/>
    </mask>
    <path d="M130 0C141.046 0 150 8.95431 150 20V130C150 141.046 141.046 150 130 150H20C8.95431 150 5.63762e-07 141.046 0 130V20C0 8.95431 8.95431 5.63725e-07 20 0H130ZM33.3955 19C26.6499 19 24.1621 21.4878 24.1621 28.2334V109.678C24.1621 110.44 24.1959 111.148 24.2549 111.797C24.422 113.282 24.437 114.713 25.8135 116.33C25.9413 116.517 27.3379 117.54 27.3379 117.54C28.0802 117.914 28.6016 118.169 29.4521 118.523L70.4277 135.692C72.5466 136.661 73.4416 137.049 74.9805 136.995H75C76.5585 137.049 77.4534 136.661 79.5723 135.692L120.543 118.523C121.398 118.169 121.9 117.914 122.662 117.54C122.662 117.54 124.059 116.497 124.187 116.33C125.563 114.713 125.578 113.282 125.745 111.797C125.804 111.148 125.843 110.44 125.843 109.683V28.2285C125.838 21.4878 123.345 19 116.6 19H33.3955ZM74.6807 127.462L55.3926 120.824H94.79L74.6807 127.462ZM102.405 34.291C107.981 34.291 110.695 37.0052 110.695 42.6348V51.873H103.949V43.0078C103.949 41.2036 103.113 40.3682 101.368 40.3682H100.218C98.4134 40.3682 97.5772 41.2036 97.5771 43.0078V71.5889C97.5772 73.3882 98.4134 74.2236 100.218 74.2236H101.496C103.227 74.2236 104.062 73.3882 104.062 71.5889V61.3623H110.828V71.9033C110.828 77.5328 108.055 80.3007 102.465 80.3008H99.0625C93.4526 80.3008 90.7041 77.5132 90.7041 71.9033V42.6934C90.7041 37.0786 93.4526 34.291 99.0625 34.291H102.405ZM54.4482 40.9434H46.0117V53.7461H54.1338V60.0098H46.0117V73.6484H54.5615V79.9121H39.1377V34.6641H54.4482V40.9434ZM68.7021 34.6641C74.2921 34.6642 77.0605 37.4526 77.0605 43.082V55.1035C77.0604 60.7327 74.292 63.5057 68.7021 63.5059H64.7979V79.9121H57.9043V34.6641H68.7021ZM87.041 79.9121H80.167V34.6641H87.041V79.9121ZM64.7783 57.4287H67.625C69.3508 57.4287 70.1865 56.5926 70.1865 54.7734V43.416C70.1865 41.597 69.3507 40.7607 67.625 40.7607H64.7783V57.4287Z" fill="url(#paint0_linear_29_2184)" fill-opacity="0.25" mask="url(#path-1-inside-1_29_2184)"/>
</g>
<defs>
  <filter id="filter0_i_29_2184" x="-30" y="-30" width="210" height="210" filterUnits="userSpaceOnUse" color-interpolation-filters="sRGB">
    <feFlood flood-opacity="0" result="BackgroundImageFix"/>
    <feBlend mode="normal" in="SourceGraphic" in2="BackgroundImageFix" result="shape"/>
    <feColorMatrix in="SourceAlpha" type="matrix" values="0 0 0 0 0 0 0 0 0 0 0 0 0 0 0 0 0 0 127 0" result="hardAlpha"/>
    <feOffset dy="3"/>
    <feGaussianBlur stdDeviation="4"/>
    <feComposite in2="hardAlpha" operator="arithmetic" k2="-1" k3="1"/>
    <feColorMatrix type="matrix" values="0 0 0 0 1 0 0 0 0 1 0 0 0 0 1 0 0 0 0.1 0"/>
    <feBlend mode="normal" in2="shape" result="effect1_innerShadow_29_2184"/>
  </filter>
  <linearGradient id="paint0_linear_29_2184" x1="75" y1="0" x2="75" y2="150" gradientUnits="userSpaceOnUse">
    <stop stop-color="#BAD7F5"/>
    <stop offset="1" stop-color="#565C61"/>
  </linearGradient>
  <linearGradient id="paint1_linear_29_2184" x1="75" y1="0" x2="75" y2="150" gradientUnits="userSpaceOnUse">
    <stop stop-color="#BAD7F5"/>
    <stop offset="1" stop-color="#6D7D8F" stop-opacity="0"/>
  </linearGradient>
</defs>
</svg>
