<svg xmlns="http://www.w3.org/2000/svg" width="104" height="182" viewBox="0 0 104 182" fill="none">
  <foreignObject x="-35.5" y="4" width="169" height="61"><div xmlns="http://www.w3.org/1999/xhtml" style="backdrop-filter:blur(15px);height:100%;width:100%"></div></foreignObject><path data-figma-bg-blur-radius="30" d="M103.5 34.5H-5.5" stroke="#BAD7F5" stroke-opacity="0.14"/>
  <foreignObject x="-35.5" y="64" width="169" height="61"><div xmlns="http://www.w3.org/1999/xhtml" style="backdrop-filter:blur(15px);height:100%;width:100%"></div></foreignObject><path data-figma-bg-blur-radius="30" d="M103.5 94.5H-5.5" stroke="#BAD7F5" stroke-opacity="0.14"/>
  <foreignObject x="-35.5" y="124" width="169" height="61"><div xmlns="http://www.w3.org/1999/xhtml" style="backdrop-filter:blur(15px);height:100%;width:100%"></div></foreignObject><path data-figma-bg-blur-radius="30" d="M103.5 154.5H-5.5" stroke="#BAD7F5" stroke-opacity="0.14"/>
  <foreignObject x="-91.5" y="107" width="172.297" height="77.9019"><div xmlns="http://www.w3.org/1999/xhtml" style="backdrop-filter:blur(15px);height:100%;width:100%"></div></foreignObject><path data-figma-bg-blur-radius="30" d="M50.5 154.5L27.5 137.5H-61.5" stroke="#BAD7F5" stroke-opacity="0.14"/>
  <foreignObject x="-90.5" y="134.098" width="172.297" height="77.9019"><div xmlns="http://www.w3.org/1999/xhtml" style="backdrop-filter:blur(15px);height:100%;width:100%"></div></foreignObject><path data-figma-bg-blur-radius="30" d="M51.5 164.5L28.5 181.5H-60.5" stroke="#BAD7F5" stroke-opacity="0.14"/>
  <foreignObject x="-109.5" y="47" width="172.297" height="77.9019"><div xmlns="http://www.w3.org/1999/xhtml" style="backdrop-filter:blur(15px);height:100%;width:100%"></div></foreignObject><path data-figma-bg-blur-radius="30" d="M32.5 94.5L9.5 77.5H-79.5" stroke="#BAD7F5" stroke-opacity="0.14"/>
  <foreignObject x="-57.5" y="-13" width="172.297" height="77.9019"><div xmlns="http://www.w3.org/1999/xhtml" style="backdrop-filter:blur(15px);height:100%;width:100%"></div></foreignObject><path data-figma-bg-blur-radius="30" d="M84.5 34.5L61.5 17.5H-27.5" stroke="#BAD7F5" stroke-opacity="0.14"/>
  <foreignObject x="-85.5" y="4.09814" width="172.297" height="77.9019"><div xmlns="http://www.w3.org/1999/xhtml" style="backdrop-filter:blur(15px);height:100%;width:100%"></div></foreignObject><path data-figma-bg-blur-radius="30" d="M56.5 34.5L33.5 51.5H-55.5" stroke="#BAD7F5" stroke-opacity="0.14"/>
  <foreignObject x="-105.5" y="-30" width="172.297" height="77.9019"><div xmlns="http://www.w3.org/1999/xhtml" style="backdrop-filter:blur(15px);height:100%;width:100%"></div></foreignObject><path data-figma-bg-blur-radius="30" d="M36.5 17.5L13.5 0.5H-75.5" stroke="#BAD7F5" stroke-opacity="0.14"/>
  <foreignObject x="-54" y="124.072" width="165.759" height="70.9277"><div xmlns="http://www.w3.org/1999/xhtml" style="backdrop-filter:blur(15px);height:100%;width:100%"></div></foreignObject><path data-figma-bg-blur-radius="30" d="M81.5 154.5L65 164.5H-24" stroke="#BAD7F5" stroke-opacity="0.14"/>
  <foreignObject x="-87" y="64.0723" width="165.759" height="70.9277"><div xmlns="http://www.w3.org/1999/xhtml" style="backdrop-filter:blur(15px);height:100%;width:100%"></div></foreignObject><path data-figma-bg-blur-radius="30" d="M48.5 94.5L32 104.5H-57" stroke="#BAD7F5" stroke-opacity="0.14"/>
  <foreignObject x="-118" y="74.0723" width="165.759" height="70.9277"><div xmlns="http://www.w3.org/1999/xhtml" style="backdrop-filter:blur(15px);height:100%;width:100%"></div></foreignObject><path data-figma-bg-blur-radius="30" d="M17.5 104.5L1 114.5H-88" stroke="#BAD7F5" stroke-opacity="0.14"/>
</svg>
