<svg width="1440" height="1177" viewBox="0 0 1440 1177" fill="none" xmlns="http://www.w3.org/2000/svg">
<g opacity="0.3" filter="url(#filter0_f_24_1214)">
<g clip-path="url(#clip0_24_1214)">
<g filter="url(#filter1_f_24_1214)">
<ellipse cx="698.5" cy="496.5" rx="481.5" ry="144.5" fill="#B2FCFF" fill-opacity="0.6"/>
</g>
</g>
<path d="M732 335C416.093 335 160 576.319 160 874L1304 874C1304 576.319 1047.91 335 732 335Z" fill="url(#paint0_linear_24_1214)"/>
<mask id="mask0_24_1214" style="mask-type:alpha" maskUnits="userSpaceOnUse" x="160" y="335" width="1144" height="539">
<path d="M732 335C416.093 335 160 576.319 160 874L1304 874C1304 576.319 1047.91 335 732 335Z" fill="#09090B"/>
</mask>
<g mask="url(#mask0_24_1214)">
<g opacity="0.2" filter="url(#filter2_f_24_1214)">
<path fill-rule="evenodd" clip-rule="evenodd" d="M732 303C1018.65 303 1256.06 501.697 1297.57 760.902C1176.48 586.25 968.389 471 732 471C495.612 471 287.522 586.249 166.435 760.901C207.944 501.696 445.346 303 732 303Z" fill="#B2FCFF"/>
</g>
<g opacity="0.5" filter="url(#filter3_f_24_1214)">
<path fill-rule="evenodd" clip-rule="evenodd" d="M732 303C980.678 303 1192.29 452.537 1271.09 661.39C1147.43 506.797 951.97 407 732 407C512.03 407 316.565 506.797 192.905 661.39C271.711 452.537 483.322 303 732 303Z" fill="#B2FCFF"/>
</g>
<g filter="url(#filter4_f_24_1214)">
<path fill-rule="evenodd" clip-rule="evenodd" d="M732 303C933.298 303 1110.31 400.983 1212.25 549.097C1089.62 431.691 919.734 359 732 359C544.266 359 374.381 431.691 251.748 549.097C353.691 400.983 530.703 303 732 303Z" fill="white"/>
</g>
</g>
<g filter="url(#filter5_dd_24_1214)">
<path d="M1304 874C1304 576.319 1047.91 335 732 335C416.093 335 160 576.319 160 874" stroke="url(#paint1_linear_24_1214)" stroke-width="5"/>
</g>
</g>
<defs>
<filter id="filter0_f_24_1214" x="-212" y="0" width="1887" height="1177" filterUnits="userSpaceOnUse" color-interpolation-filters="sRGB">
<feFlood flood-opacity="0" result="BackgroundImageFix"/>
<feBlend mode="normal" in="SourceGraphic" in2="BackgroundImageFix" result="shape"/>
<feGaussianBlur stdDeviation="27" result="effect1_foregroundBlur_24_1214"/>
</filter>
<filter id="filter1_f_24_1214" x="-95" y="40" width="1587" height="913" filterUnits="userSpaceOnUse" color-interpolation-filters="sRGB">
<feFlood flood-opacity="0" result="BackgroundImageFix"/>
<feBlend mode="normal" in="SourceGraphic" in2="BackgroundImageFix" result="shape"/>
<feGaussianBlur stdDeviation="156" result="effect1_foregroundBlur_24_1214"/>
</filter>
<filter id="filter2_f_24_1214" x="126.435" y="263" width="1211.13" height="537.902" filterUnits="userSpaceOnUse" color-interpolation-filters="sRGB">
<feFlood flood-opacity="0" result="BackgroundImageFix"/>
<feBlend mode="normal" in="SourceGraphic" in2="BackgroundImageFix" result="shape"/>
<feGaussianBlur stdDeviation="20" result="effect1_foregroundBlur_24_1214"/>
</filter>
<filter id="filter3_f_24_1214" x="152.905" y="263" width="1158.19" height="438.39" filterUnits="userSpaceOnUse" color-interpolation-filters="sRGB">
<feFlood flood-opacity="0" result="BackgroundImageFix"/>
<feBlend mode="normal" in="SourceGraphic" in2="BackgroundImageFix" result="shape"/>
<feGaussianBlur stdDeviation="20" result="effect1_foregroundBlur_24_1214"/>
</filter>
<filter id="filter4_f_24_1214" x="211.748" y="263" width="1040.5" height="326.097" filterUnits="userSpaceOnUse" color-interpolation-filters="sRGB">
<feFlood flood-opacity="0" result="BackgroundImageFix"/>
<feBlend mode="normal" in="SourceGraphic" in2="BackgroundImageFix" result="shape"/>
<feGaussianBlur stdDeviation="20" result="effect1_foregroundBlur_24_1214"/>
</filter>
<filter id="filter5_dd_24_1214" x="93.5" y="268.5" width="1277" height="669.5" filterUnits="userSpaceOnUse" color-interpolation-filters="sRGB">
<feFlood flood-opacity="0" result="BackgroundImageFix"/>
<feColorMatrix in="SourceAlpha" type="matrix" values="0 0 0 0 0 0 0 0 0 0 0 0 0 0 0 0 0 0 127 0" result="hardAlpha"/>
<feOffset/>
<feGaussianBlur stdDeviation="32"/>
<feColorMatrix type="matrix" values="0 0 0 0 0.698039 0 0 0 0 0.988235 0 0 0 0 1 0 0 0 1 0"/>
<feBlend mode="normal" in2="BackgroundImageFix" result="effect1_dropShadow_24_1214"/>
<feColorMatrix in="SourceAlpha" type="matrix" values="0 0 0 0 0 0 0 0 0 0 0 0 0 0 0 0 0 0 127 0" result="hardAlpha"/>
<feOffset/>
<feGaussianBlur stdDeviation="4"/>
<feColorMatrix type="matrix" values="0 0 0 0 0.698039 0 0 0 0 0.988235 0 0 0 0 1 0 0 0 0.5 0"/>
<feBlend mode="normal" in2="effect1_dropShadow_24_1214" result="effect2_dropShadow_24_1214"/>
<feBlend mode="normal" in="SourceGraphic" in2="effect2_dropShadow_24_1214" result="shape"/>
</filter>
<linearGradient id="paint0_linear_24_1214" x1="732" y1="335" x2="732" y2="781" gradientUnits="userSpaceOnUse">
<stop stop-color="#09090B" stop-opacity="0"/>
<stop offset="0.16253" stop-color="#09090B" stop-opacity="0.2"/>
<stop offset="1" stop-color="#09090B"/>
</linearGradient>
<linearGradient id="paint1_linear_24_1214" x1="732" y1="335" x2="732" y2="874" gradientUnits="userSpaceOnUse">
<stop stop-color="#B2FCFF"/>
<stop offset="0.491922" stop-color="#B2FCFF" stop-opacity="0.1"/>
<stop offset="1" stop-color="#B2FCFF" stop-opacity="0"/>
</linearGradient>
<clipPath id="clip0_24_1214">
<rect width="1779" height="1069" fill="white" transform="translate(-158 54)"/>
</clipPath>
</defs>
</svg>
