<svg width="100" height="100" viewBox="0 0 100 100" fill="none" xmlns="http://www.w3.org/2000/svg">
<path fill-rule="evenodd" clip-rule="evenodd" d="M39.2204 7.85195C52.5724 -3.20678 72.8455 2.22493 78.8795 18.4779L80.9128 23.9535C81.073 24.385 81.3712 24.7519 81.7604 24.9975L86.609 28.057C101.312 37.3347 102.409 58.3699 88.7506 69.1264L84.2965 72.6332C83.9341 72.9187 83.6762 73.316 83.5622 73.7631L82.1461 79.3207C77.8614 96.1391 58.2436 103.679 43.7975 94.06L38.9362 90.8236C38.5539 90.5692 38.0986 90.4467 37.6403 90.476L31.8122 90.849C14.4919 91.9564 1.2729 75.6171 5.97134 58.9096L7.52408 53.3891C7.64897 52.9448 7.62298 52.4709 7.45181 52.0424L5.34927 46.7787C-1.10132 30.6339 10.3657 12.9656 27.7379 12.2826L33.4674 12.058C33.927 12.0398 34.368 11.8708 34.7223 11.5775L39.2204 7.85195ZM29.2536 40.9096C28.4813 40.9098 27.8551 41.5357 27.8551 42.308V46.0375C27.8551 46.8099 27.2291 47.4359 26.4567 47.4359H22.7272C21.955 47.436 21.3289 48.0621 21.3288 48.8344V52.5639C21.3288 53.3362 21.9548 53.9632 22.7272 53.9633H26.4567C27.2291 53.9633 27.8551 54.5893 27.8551 55.3617V59.0912C27.8551 59.8635 28.4813 60.4894 29.2536 60.4896H32.9831C33.7555 60.4896 34.3825 59.8636 34.3825 59.0912V55.3617C34.3825 54.5893 35.0085 53.9633 35.7809 53.9633H39.5104C40.2828 53.9633 40.9088 53.3363 40.9088 52.5639V48.8344C40.9087 48.0621 40.2827 47.4359 39.5104 47.4359H35.7809C35.0085 47.4359 34.3825 46.8099 34.3825 46.0375V42.308C34.3825 41.5356 33.7555 40.9096 32.9831 40.9096H29.2536ZM56.6432 45.1049C53.5536 45.105 51.0485 47.6099 51.0485 50.6996C51.0486 53.7892 53.5537 56.2933 56.6432 56.2934C59.7328 56.2934 62.2378 53.7892 62.2379 50.6996C62.2379 47.6099 59.7329 45.1049 56.6432 45.1049ZM73.4264 45.1049C70.3368 45.105 67.8317 47.6099 67.8317 50.6996C67.8318 53.7892 70.3369 56.2933 73.4264 56.2934C76.5161 56.2934 79.021 53.7892 79.0211 50.6996C79.0211 47.6099 76.5161 45.1049 73.4264 45.1049Z" fill="white"/>
</svg>
